<svg id="Layer_1" height="512" viewBox="0 0 512 512" width="512" xmlns="http://www.w3.org/2000/svg" data-name="Layer 1"><path d="m232.65 85.92a199.084 199.084 0 0 0 -34.91 3.07l-.02.01a75.2 75.2 0 0 0 -64.87-37.09l1.85 6.02a108.881 108.881 0 0 1 4.06 44.25h-.01a164.326 164.326 0 0 0 -81.58 66.14l-9.33 14.74h-24.3a12.549 12.549 0 0 0 -12.54 12.55v79.64a12.549 12.549 0 0 0 12.54 12.55h25.16a135.952 135.952 0 0 0 22.29 33.13 108.772 108.772 0 0 1 27.82 72.96 18.505 18.505 0 0 0 18.5 18.5h25.73a18.5 18.5 0 0 0 18.5-18.5 18.505 18.505 0 0 1 18.49-18.49h48.02a18.494 18.494 0 0 1 18.5 18.49 18.505 18.505 0 0 0 18.5 18.5h48.23l84.98-153.6a167.726 167.726 0 0 0 1.39-21.61c0-83.54-74.77-151.26-167-151.26z" fill="#f8d2c5"/><path d="m399.43 256.96a101.846 101.846 0 1 1 -1.17.01c.39-.01.78-.01 1.17-.01z" fill="#f2cd7d"/><path d="m129.81 393.89a108.772 108.772 0 0 0 -27.82-72.96 135.952 135.952 0 0 1 -22.29-33.13h-25.16a12.549 12.549 0 0 1 -12.54-12.55v-79.64a12.549 12.549 0 0 1 12.54-12.55h24.3l9.33-14.74a164.326 164.326 0 0 1 81.58-66.14h.01a108.9 108.9 0 0 0 -3.544-42.48 74.952 74.952 0 0 0 -33.366-7.79l1.85 6.02a108.881 108.881 0 0 1 4.06 44.25h-.01a164.326 164.326 0 0 0 -81.58 66.14l-9.33 14.74h-24.3a12.549 12.549 0 0 0 -12.54 12.55v79.64a12.549 12.549 0 0 0 12.54 12.55h25.16a135.952 135.952 0 0 0 22.29 33.13 108.772 108.772 0 0 1 27.82 72.96 18.505 18.505 0 0 0 18.5 18.5h25.73a18.583 18.583 0 0 0 2.634-.209 18.462 18.462 0 0 1 -15.864-18.291z" fill="#dbb7ad"/><path d="m343.76 411.47a101.571 101.571 0 0 1 71.207-153.329 102.43 102.43 0 0 0 -15.537-1.181c-.39 0-.78 0-1.17.01a101.564 101.564 0 1 0 16.713 201.938 101.556 101.556 0 0 1 -71.213-47.438z" fill="#d1af6b"/><g fill="#284268"><path d="m149.484 168.9a6 6 0 0 0 -6 6 15.326 15.326 0 1 1 -30.652 0 6 6 0 0 0 -12 0 27.326 27.326 0 1 0 54.652 0 6 6 0 0 0 -6-6z"/><path d="m321.649 244.474a5.967 5.967 0 0 0 3-.807c2.8-1.618 5.7-3.136 8.631-4.512a6 6 0 0 0 -5.1-10.86c-3.233 1.52-6.44 3.2-9.531 4.983a6 6 0 0 0 3.008 11.2z"/><path d="m306.658 256.5a6 6 0 0 0 -7.868-9.061 128.385 128.385 0 0 0 -19.94 21.833 126.986 126.986 0 0 0 -17.515 34.235 6 6 0 1 0 11.388 3.784 114.986 114.986 0 0 1 15.863-31 116.267 116.267 0 0 1 18.072-19.791z"/><path d="m404.962 251.1c.445-4.62.688-9.277.688-13.916 0-1.858-.048-3.7-.119-5.547a42.357 42.357 0 0 0 37.8-42.057 6 6 0 0 0 -12 0 30.337 30.337 0 0 1 -26.76 30.085c-9.616-78.5-83.043-139.747-171.923-139.747a207.656 207.656 0 0 0 -32.019 2.49 81.25 81.25 0 0 0 -67.779-36.5 6 6 0 0 0 -5.737 7.757l1.845 6.025a102.124 102.124 0 0 1 4.19 38.22 171.344 171.344 0 0 0 -81.045 67.2l-7.563 11.95h-20.995a18.565 18.565 0 0 0 -18.545 18.548v79.646a18.566 18.566 0 0 0 18.545 18.546h21.407a143.3 143.3 0 0 0 21.588 31.148 102.562 102.562 0 0 1 26.272 68.952 24.526 24.526 0 0 0 24.5 24.5h25.729a24.525 24.525 0 0 0 24.5-24.5 12.511 12.511 0 0 1 12.5-12.5h48.021a12.511 12.511 0 0 1 12.5 12.5 24.525 24.525 0 0 0 24.5 24.5h45.061a107.552 107.552 0 1 0 94.839-167.3zm-139.915 155.292a12.511 12.511 0 0 1 -12.5-12.5 24.524 24.524 0 0 0 -24.5-24.5h-48.015a24.524 24.524 0 0 0 -24.5 24.5 12.511 12.511 0 0 1 -12.5 12.5h-25.723a12.511 12.511 0 0 1 -12.5-12.5 114.54 114.54 0 0 0 -29.363-76.992 130.024 130.024 0 0 1 -21.321-31.661 6 6 0 0 0 -5.425-3.439h-25.155a6.552 6.552 0 0 1 -6.545-6.546v-79.646a6.552 6.552 0 0 1 6.545-6.544h24.3a6 6 0 0 0 5.07-2.792l9.33-14.741a159.228 159.228 0 0 1 78.4-63.651 6 6 0 0 0 4.077-5.016 114.09 114.09 0 0 0 -3.634-44.464 69.372 69.372 0 0 1 61.029 68.78 6 6 0 1 0 12 0 80.745 80.745 0 0 0 -7.28-33.554 198.139 198.139 0 0 1 25.811-1.7c88.777 0 161 65.166 161 145.266a133.451 133.451 0 0 1 -.738 13.979 107.528 107.528 0 0 0 -89.788 155.23zm134.386 47.7a95.567 95.567 0 1 1 95.567-95.566 95.675 95.675 0 0 1 -95.567 95.566z"/><path d="m399.433 317.834a17.1 17.1 0 0 1 17.084 17.083 6 6 0 0 0 12 0 29.131 29.131 0 0 0 -23.084-28.457v-7.309a6 6 0 0 0 -12 0v7.309a29.083 29.083 0 0 0 6 57.54 17.08 17.08 0 0 1 .164 34.159c-.055 0-.108-.009-.164-.009s-.109.007-.164.009a17.1 17.1 0 0 1 -16.919-17.075 6 6 0 1 0 -12 0 29.13 29.13 0 0 0 23.083 28.457v8.359a6 6 0 0 0 12 0v-8.359a29.083 29.083 0 0 0 -6-57.541 17.083 17.083 0 1 1 0-34.166z"/></g></svg>