<svg height="512pt" viewBox="-51 0 512 512" width="512pt" xmlns="http://www.w3.org/2000/svg"><path d="m410 110v340.96875c0 33.652344-27.378906 61.03125-61.03125 61.03125h-287.9375c-33.652344 0-61.03125-27.378906-61.03125-61.03125v-389.9375c0-33.652344 27.378906-61.03125 61.03125-61.03125h238.96875zm0 0" fill="#d1effa"/><path d="m410 110v340.96875c0 33.652344-27.378906 61.03125-61.03125 61.03125h-143.96875v-512h95zm0 0" fill="#97e1ff"/><path d="m410 95.769531v14.230469h-77.5c-17.921875 0-32.5-14.578125-32.5-32.5v-77.5h14.230469c4.5 0 8.730469 1.75 11.910156 4.929688l78.929687 78.929687c3.179688 3.179687 4.929688 7.410156 4.929688 11.910156zm0 0" fill="#0089ff"/><path d="m295.769531 367.929688c0 8.289062-6.71875 15-15 15h-151.539062c-8.28125 0-15-6.710938-15-15 0-8.28125 6.71875-15 15-15h151.539062c8.28125 0 15 6.71875 15 15zm0 0" fill="#0051c6"/><path d="m265.769531 412.929688c0 8.289062-6.71875 15-15 15h-91.539062c-8.28125 0-15-6.710938-15-15 0-8.28125 6.71875-15 15-15h91.539062c8.28125 0 15 6.71875 15 15zm0 0" fill="#0051c6"/><g fill="#003183"><path d="m265.769531 412.929688c0 8.289062-6.71875 15-15 15h-45.769531v-30h45.769531c8.28125 0 15 6.71875 15 15zm0 0"/><path d="m295.769531 367.929688c0 8.289062-6.71875 15-15 15h-75.769531v-30h75.769531c8.28125 0 15 6.71875 15 15zm0 0"/><path d="m297.082031 172.011719c-17.554687 0-31.839843 14.28125-31.839843 31.835937v81.480469c0 8.285156 6.71875 15 15 15 8.285156 0 15-6.714844 15-15v-34.160156h19.160156v34.160156c0 8.285156 6.714844 15 15 15s15-6.714844 15-15v-81.480469c0-17.554687-14.28125-31.835937-31.839844-31.835937zm17.320313 31.835937v17.320313h-19.15625v-17.320313c0-1.011718.824218-1.835937 1.835937-1.835937h15.484375c1.011719 0 1.835938.824219 1.835938 1.835937zm0 0"/></g><path d="m165.085938 285.328125c0-8.285156-6.714844-15-15-15h-5.339844v-64.175781c0-18.828125-15.316406-34.144532-34.140625-34.144532h-10.878907c-18.824218 0-34.140624 15.316407-34.140624 34.144532v60.035156c0 18.757812 15.210937 34.035156 33.945312 34.136719.066406.003906.132812.003906.195312.003906h50.359376c8.285156 0 15-6.714844 15-15zm-50.339844-15h-15.019532c-2.28125 0-4.140624-1.859375-4.140624-4.140625v-60.035156c0-2.285156 1.859374-4.144532 4.140624-4.144532h10.878907c2.28125 0 4.140625 1.859376 4.140625 4.144532zm0 0" fill="#0051c6"/><path d="m254.21875 193.71875-49.160156 98.320312c-.019532.039063-.039063.070313-.058594.109376-2.648438 5.179687-7.910156 8.179687-13.371094 8.179687-2.25 0-4.539062-.507813-6.699218-1.589844-7.410157-3.699219-10.410157-12.707031-6.699219-20.117187l26.769531-53.542969 22.390625-44.777344c3.699219-7.410156 12.710937-10.410156 20.121094-6.710937 7.410156 3.710937 10.410156 12.71875 6.707031 20.128906zm0 0" fill="#0051c6"/><path d="m254.21875 193.71875-49.160156 98.320312c-.019532.039063-.039063.070313-.058594.109376v-67.070313l22.390625-44.777344c3.699219-7.410156 12.710937-10.410156 20.121094-6.710937 7.410156 3.710937 10.410156 12.71875 6.707031 20.128906zm0 0" fill="#003183"/></svg>