<svg id="Capa_1" enable-background="new 0 0 511.877 511.877" height="512" viewBox="0 0 511.877 511.877" width="512"
    xmlns="http://www.w3.org/2000/svg">
    <g>
        <g>
            <g>
                <ellipse cx="224.324" cy="40.219" rx="9.945" ry="9.945"
                    transform="matrix(.998 -.071 .071 .998 -2.287 16.003)" />
                <path
                    d="m297.498 32.719h-41.559c-4.142 0-7.5 3.358-7.5 7.5s3.358 7.5 7.5 7.5h41.559c4.142 0 7.5-3.358 7.5-7.5s-3.358-7.5-7.5-7.5z" />
                <path
                    d="m327.147 119.706c4.142 0 7.5-3.358 7.5-7.5v-4.583c0-4.142-3.358-7.5-7.5-7.5s-7.5 3.358-7.5 7.5v4.583c0 4.142 3.358 7.5 7.5 7.5z" />
                <path
                    d="m357.666 112.206v-9.167c0-4.142-3.358-7.5-7.5-7.5s-7.5 3.358-7.5 7.5v9.167c0 4.142 3.358 7.5 7.5 7.5s7.5-3.358 7.5-7.5z" />
                <path
                    d="m380.684 112.206v-13.75c0-4.142-3.358-7.5-7.5-7.5s-7.5 3.358-7.5 7.5v13.75c0 4.142 3.358 7.5 7.5 7.5s7.5-3.358 7.5-7.5z" />
                <path
                    d="m374.959 0h-238.041c-17.341 0-31.448 14.107-31.448 31.448v89.99c0 4.142 3.358 7.5 7.5 7.5s7.5-3.358 7.5-7.5v-41h270.938v351h-270.938v-275.5c0-4.142-3.358-7.5-7.5-7.5s-7.5 3.358-7.5 7.5v324.49c0 17.341 14.107 31.448 31.448 31.448h157.021c4.142 0 7.5-3.358 7.5-7.5s-3.358-7.5-7.5-7.5h-157.021c-9.069 0-16.448-7.379-16.448-16.448v-33.99h270.938v33.99c0 9.07-7.379 16.448-16.448 16.448h-46.02c-4.142 0-7.5 3.358-7.5 7.5s3.358 7.5 7.5 7.5h46.02c17.341 0 31.448-14.107 31.448-31.448v-448.98c-.001-17.341-14.108-31.448-31.449-31.448zm16.448 65.438h-270.937v-33.99c0-9.07 7.379-16.448 16.448-16.448h238.041c9.069 0 16.448 7.378 16.448 16.448z" />
                <path
                    d="m243.849 464.158c-4.142 0-7.5 3.358-7.5 7.5s3.358 7.5 7.5 7.5h24.178c4.142 0 7.5-3.358 7.5-7.5s-3.358-7.5-7.5-7.5z" />
                <path
                    d="m255.939 122.098c-28.391 0-51.488 23.097-51.488 51.488v29.447c-11.597 1.979-20.455 12.095-20.455 24.248v84.462c0 13.567 11.038 24.605 24.605 24.605h94.676c13.567 0 24.605-11.038 24.605-24.605v-84.462c0-12.153-8.858-22.269-20.455-24.248v-29.447c0-28.391-23.097-51.488-51.488-51.488zm-36.488 51.488c0-20.12 16.368-36.488 36.488-36.488s36.488 16.368 36.488 36.488v29.09h-13.961v-29.311c0-12.421-10.105-22.526-22.526-22.526s-22.526 10.105-22.526 22.526v29.311h-13.961v-29.09zm44.014-.22v29.311h-15.053v-29.311c0-4.15 3.376-7.526 7.526-7.526s7.527 3.376 7.527 7.526zm49.417 53.915v84.462c0 5.296-4.309 9.605-9.605 9.605h-94.676c-5.296 0-9.605-4.309-9.605-9.605v-84.462c0-5.296 4.309-9.605 9.605-9.605h94.676c5.296 0 9.605 4.309 9.605 9.605z" />
                <path
                    d="m255.939 245.35c-8.11 0-14.684 6.574-14.684 14.684 0 5.125 2.629 9.631 6.608 12.258v13.306c0 4.46 3.616 8.076 8.076 8.076s8.076-3.616 8.076-8.076v-13.306c3.979-2.627 6.608-7.133 6.608-12.258 0-8.11-6.574-14.684-14.684-14.684z" />
                <path
                    d="m200.943 361.037c-5.866 0-10.621 4.755-10.621 10.621 0 5.865 4.755 10.621 10.621 10.621s10.621-4.755 10.621-10.621-4.755-10.621-10.621-10.621z" />
                <path
                    d="m226.986 371.658c0 5.865 4.755 10.621 10.621 10.621s10.621-4.755 10.621-10.621-4.755-10.621-10.621-10.621-10.621 4.755-10.621 10.621z" />
                <path
                    d="m263.65 371.658c0 5.865 4.755 10.621 10.621 10.621s10.621-4.755 10.621-10.621-4.755-10.621-10.621-10.621-10.621 4.755-10.621 10.621z" />
                <path
                    d="m310.935 361.037c-5.866 0-10.621 4.755-10.621 10.621 0 5.865 4.755 10.621 10.621 10.621s10.621-4.755 10.621-10.621c-.001-5.866-4.756-10.621-10.621-10.621z" />
            </g>
        </g>
    </g>
</svg>