<?xml version="1.0" encoding="iso-8859-1"?>
<!-- Generator: Adobe Illustrator 19.0.0, SVG Export Plug-In . SVG Version: 6.00 Build 0)  -->
<svg version="1.1" id="Capa_1" xmlns="http://www.w3.org/2000/svg" xmlns:xlink="http://www.w3.org/1999/xlink" x="0px" y="0px"
	 viewBox="0 0 512 512" style="enable-background:new 0 0 512 512;" xml:space="preserve">
<g>
	<g>
		<path d="M123.465,347.936H40.633c-4.142,0-7.5,3.358-7.5,7.5v82.832c0,4.142,3.358,7.5,7.5,7.5h82.832c4.142,0,7.5-3.358,7.5-7.5
			v-82.832C130.965,351.294,127.607,347.936,123.465,347.936z M48.133,430.769v-67.832h67.832v67.832H48.133z"/>
	</g>
</g>
<g>
	<g>
		<path d="M98.617,372.785H65.482c-4.142,0-7.5,3.358-7.5,7.5v33.135c0,4.142,3.358,7.5,7.5,7.5h33.135c4.142,0,7.5-3.358,7.5-7.5
			v-33.135C106.117,376.143,102.759,372.785,98.617,372.785z M91.117,405.92H72.982v-18.135h18.135V405.92z"/>
	</g>
</g>
<g>
	<g>
		<path d="M206.299,364.501h-49.7c-4.142,0-7.5,3.358-7.5,7.5c0,4.142,3.358,7.5,7.5,7.5h49.7c4.142,0,7.5-3.358,7.5-7.5
			C213.799,367.859,210.441,364.501,206.299,364.501z"/>
	</g>
</g>
<g>
	<g>
		<path d="M206.299,397.637h-49.698c-4.142,0-7.5,3.358-7.5,7.5c0,4.142,3.358,7.5,7.5,7.5h49.698c4.142,0,7.5-3.358,7.5-7.5
			C213.799,400.995,210.441,397.637,206.299,397.637z"/>
	</g>
</g>
<g>
	<g>
		<path d="M256,397.637h-24.85c-4.142,0-7.5,3.358-7.5,7.5c0,4.142,3.358,7.5,7.5,7.5H256c4.142,0,7.5-3.358,7.5-7.5
			C263.5,400.995,260.142,397.637,256,397.637z"/>
	</g>
</g>
<g>
	<g>
		<path d="M264.284,173.987h-16.567c-4.142,0-7.5,3.358-7.5,7.5c0,4.142,3.358,7.5,7.5,7.5h0.782v9.066c0,4.142,3.358,7.5,7.5,7.5
			c4.142,0,7.5-3.358,7.5-7.5v-9.066h0.785c4.142,0,7.5-3.358,7.5-7.5C271.784,177.345,268.426,173.987,264.284,173.987z"/>
	</g>
</g>
<g>
	<g>
		<path d="M487.933,132.542H322.266c-0.189,0-0.375,0.014-0.561,0.028h-8.458v-42.2c0-31.565-25.68-57.246-57.246-57.246
			c-31.566,0-57.246,25.681-57.246,57.246v42.201h-8.461c-0.186-0.014-0.372-0.028-0.561-0.028H24.067
			C10.796,132.542,0,143.339,0,156.61v298.199c0,13.271,10.796,24.067,24.067,24.067h367.235c4.142,0,7.5-3.358,7.5-7.5
			c0-4.142-3.358-7.5-7.5-7.5H24.067c-4.999,0-9.067-4.067-9.067-9.067V156.61c0-0.674,0.08-1.329,0.22-1.962l236.339,173.695
			c1.321,0.971,2.881,1.456,4.441,1.456s3.12-0.485,4.441-1.456L496.78,154.646c0.14,0.633,0.22,1.288,0.22,1.963v298.199
			c0,5-4.067,9.067-9.067,9.067H421.25c-4.142,0-7.5,3.358-7.5,7.5c0,4.142,3.358,7.5,7.5,7.5h66.683
			c13.271,0,24.067-10.796,24.067-24.067V156.61C512,143.339,501.204,132.542,487.933,132.542z M213.755,90.37
			c0-23.294,18.952-42.246,42.246-42.246s42.246,18.952,42.246,42.246v42.201h-18.181V90.355c0-13.27-10.795-24.065-24.065-24.065
			c-13.27,0-24.065,10.795-24.065,24.065v42.216h-18.181V90.37z M265.066,90.355v42.216h-18.13V90.355
			c0-4.999,4.066-9.065,9.065-9.065C260.999,81.29,265.066,85.356,265.066,90.355z M197.232,147.571h117.533v84.401H197.232V147.571
			z M256,312.991L30.881,147.542h151.351v91.929c0,4.142,3.358,7.5,7.5,7.5h132.533c4.142,0,7.5-3.358,7.5-7.5v-91.929h151.352
			L256,312.991z"/>
	</g>
</g>
<g>
</g>
<g>
</g>
<g>
</g>
<g>
</g>
<g>
</g>
<g>
</g>
<g>
</g>
<g>
</g>
<g>
</g>
<g>
</g>
<g>
</g>
<g>
</g>
<g>
</g>
<g>
</g>
<g>
</g>
</svg>
