<?xml version="1.0"?>
<svg xmlns="http://www.w3.org/2000/svg" xmlns:xlink="http://www.w3.org/1999/xlink" xmlns:svgjs="http://svgjs.com/svgjs" version="1.1" width="512" height="512" x="0" y="0" viewBox="0 0 468.293 468.293" style="enable-background:new 0 0 512 512" xml:space="preserve" class=""><g>
<path xmlns="http://www.w3.org/2000/svg" style="" d="M468.293,226.029V62.439C468.293,28.098,440.195,0,405.854,0H234.146v226.029H468.293z" fill="#d8005a" data-original="#44c4a1" class=""/>
<path xmlns="http://www.w3.org/2000/svg" style="" d="M234.146,0H62.439C28.098,0,0,28.098,0,62.439v163.59h234.146V0z" fill="#d8005a" data-original="#e56353" class=""/>
<path xmlns="http://www.w3.org/2000/svg" style="" d="M234.146,226.029v242.263h171.707c34.341,0,62.439-28.098,62.439-62.439V226.029H234.146z" fill="#d8005a" data-original="#fcd462" class=""/>
<path xmlns="http://www.w3.org/2000/svg" style="" d="M0,226.029v179.824c0,34.341,28.098,62.439,62.439,62.439h171.707V226.029H0z" fill="#d8005a" data-original="#27a2db" class=""/>
<path xmlns="http://www.w3.org/2000/svg" style="" d="M62.439,374.634V93.659c0-17.483,13.737-31.22,31.22-31.22h280.976  c17.483,0,31.22,13.737,31.22,31.22v280.976c0,17.483-13.737,31.22-31.22,31.22H93.659  C76.176,405.854,62.439,392.117,62.439,374.634z" fill="#d5d6db" data-original="#d5d6db" class=""/>
<path xmlns="http://www.w3.org/2000/svg" style="" d="M93.659,387.122c-6.868,0-12.488-5.62-12.488-12.488V93.659c0-6.868,5.62-12.488,12.488-12.488  h280.976c6.868,0,12.488,5.62,12.488,12.488v280.976c0,6.868-5.62,12.488-12.488,12.488H93.659z" fill="#ebf0f3" data-original="#ebf0f3"/>
<path xmlns="http://www.w3.org/2000/svg" style="" d="M334.049,234.146c0,4.995-2.498,10.615-7.493,13.737l-142.361,93.659  c-10.615,6.868-24.976-0.624-24.976-13.112V140.488c0-12.488,14.361-20.605,24.976-13.112l142.361,93.659  C331.551,223.532,334.049,229.151,334.049,234.146z" fill="#d8005a" data-original="#e56353" class=""/>
<g xmlns="http://www.w3.org/2000/svg">
</g>
<g xmlns="http://www.w3.org/2000/svg">
</g>
<g xmlns="http://www.w3.org/2000/svg">
</g>
<g xmlns="http://www.w3.org/2000/svg">
</g>
<g xmlns="http://www.w3.org/2000/svg">
</g>
<g xmlns="http://www.w3.org/2000/svg">
</g>
<g xmlns="http://www.w3.org/2000/svg">
</g>
<g xmlns="http://www.w3.org/2000/svg">
</g>
<g xmlns="http://www.w3.org/2000/svg">
</g>
<g xmlns="http://www.w3.org/2000/svg">
</g>
<g xmlns="http://www.w3.org/2000/svg">
</g>
<g xmlns="http://www.w3.org/2000/svg">
</g>
<g xmlns="http://www.w3.org/2000/svg">
</g>
<g xmlns="http://www.w3.org/2000/svg">
</g>
<g xmlns="http://www.w3.org/2000/svg">
</g>
</g></svg>
