<?xml version="1.0"?>
<svg xmlns="http://www.w3.org/2000/svg" xmlns:xlink="http://www.w3.org/1999/xlink" xmlns:svgjs="http://svgjs.com/svgjs"
    version="1.1" width="512" height="512" x="0" y="0" viewBox="0 0 64 64" style="enable-background:new 0 0 512 512"
    xml:space="preserve" class="">
    <g>
        <linearGradient xmlns="http://www.w3.org/2000/svg" id="SVGID_1_" gradientUnits="userSpaceOnUse" x1="32.075"
            x2="32.075" y1="63" y2="1">
            <stop stop-opacity="1" stop-color="#006df0" offset="0" />
            <stop stop-opacity="1" stop-color="#00e7f0" offset="1" />
        </linearGradient>
        <path xmlns="http://www.w3.org/2000/svg"
            d="m15 9.854v.146h-2v-.146c0-.471-.384-.854-.854-.854h-.291c-.471 0-.855.383-.855.854 0 .326.181.619.473.764l1.949.975c.974.487 1.578 1.465 1.578 2.553 0 1.274-.845 2.343-2 2.709v2.145h-2v-2.145c-1.155-.366-2-1.435-2-2.709v-1.146h2v1.146c0 .471.384.854.854.854h.291c.471 0 .855-.383.855-.854 0-.326-.181-.619-.473-.764l-1.949-.975c-.974-.487-1.578-1.465-1.578-2.553 0-1.274.845-2.343 2-2.709v-2.145h2v2.145c1.155.366 2 1.435 2 2.709zm-4 47.001v2.145h2v-2.145c1.155-.366 2-1.435 2-2.709 0-1.088-.604-2.065-1.578-2.553l-1.949-.975c-.292-.145-.473-.438-.473-.764 0-.47.384-.854.854-.854h.291c.471 0 .855.384.855.854v.146h2v-.146c0-1.275-.845-2.344-2-2.709v-2.145h-2v2.145c-1.155.366-2 1.435-2 2.709 0 1.088.604 2.065 1.578 2.553l1.949.975c.292.145.473.438.473.764 0 .47-.384.854-.854.854h-.291c-.471 0-.855-.384-.855-.854v-1.146h-2v1.146c0 1.274.845 2.343 2 2.709zm-8-9.855 3.902-5.202-1.762-6.169c-.093-.324-.14-.66-.14-.997 0-2.003 1.629-3.632 3.632-3.632h2.736c1.413 0 2.627.819 3.227 2h2.405v-8h10v38h-10v-.841c-1.226.538-2.578.841-4 .841h-2c-5.514 0-10-4.486-10-10 0-2.148.71-4.279 2-6zm16-20v6.486c1.185.651 2 1.897 2 3.342 0 1.022-.398 1.984-1.121 2.707l-2.559 2.559 3.68 4.906c1.29 1.721 2 3.852 2 6 0 3.261-1.577 6.154-4 7.981v.019h6v-34zm-12 7.632c0 .151.021.302.062.447l1.693 5.921h6.831l2.879-2.879c.34-.34.535-.811.535-1.293 0-1.008-.82-1.828-1.828-1.828h-2.172v2h-2v-2.368c0-.9-.732-1.632-1.632-1.632h-2.736c-.9 0-1.632.732-1.632 1.632zm-2.4 13.567c-1.032 1.377-1.6 3.082-1.6 4.801 0 4.411 3.589 8 8 8h2c4.411 0 8-3.589 8-8 0-1.719-.568-3.424-1.6-4.801l-3.9-5.199h-7zm57.386-26.364 1.164 6.986-6.986 1.165-.328-1.973 3.695-.616-11.048-8.286c-.685.548-1.54.889-2.483.889-1.628 0-3.025-.98-3.649-2.378l-4.387.731c-.182 2.038-1.879 3.647-3.964 3.647-2.206 0-4-1.794-4-4 0-.018.005-.035.005-.053l-7.712-2.103c-1.564 4.172-5.581 7.156-10.293 7.156-6.065 0-11-4.935-11-11s4.935-11 11-11 11 4.935 11 11c0 .654-.068 1.292-.178 1.915l7.723 2.106c.691-1.201 1.972-2.021 3.455-2.021 1.628 0 3.025.98 3.649 2.378l4.387-.731c.182-2.038 1.879-3.647 3.964-3.647 2.206 0 4 1.794 4 4 0 .539-.11 1.052-.304 1.522l10.908 8.181-.59-3.539zm-40.986-9.835c0-4.962-4.037-9-9-9s-9 4.038-9 9 4.037 9 9 9 9-4.038 9-9zm15 6c0-1.103-.897-2-2-2s-2 .897-2 2 .897 2 2 2 2-.897 2-2zm12-2c0-1.103-.897-2-2-2s-2 .897-2 2 .897 2 2 2 2-.897 2-2zm-19 15h10v32h-10zm2 30h6v-28h-6zm20-35v37h-10v-37zm-2 2h-6v33h6zm4 7h10v28h-10zm2 26h6v-24h-6z"
            fill="url(#SVGID_1_)" data-original="url(#SVGID_1_)" style="" />
    </g>
</svg>