<svg id="Capa_1" enable-background="new 0 0 512 512" height="512" viewBox="0 0 512 512" width="512" xmlns="http://www.w3.org/2000/svg"><g><path d="m375.285 0h-238.57c-15.164 0-27.5 12.336-27.5 27.5v426.273.01s0 .006 0 .01v30.707c0 15.164 12.336 27.5 27.5 27.5h238.57c15.163 0 27.5-12.336 27.5-27.5v-276.067c0-4.142-3.357-7.5-7.5-7.5s-7.5 3.358-7.5 7.5v237.85h-263.57v-380.566h45.094c4.142 0 7.5-3.358 7.5-7.5s-3.358-7.5-7.5-7.5h-45.094v-23.217c0-6.893 5.607-12.5 12.5-12.5h238.57c6.893 0 12.5 5.607 12.5 12.5v23.217h-182.187c-4.142 0-7.5 3.358-7.5 7.5s3.358 7.5 7.5 7.5h182.187v106.426c0 4.142 3.357 7.5 7.5 7.5s7.5-3.358 7.5-7.5v-144.643c0-15.164-12.337-27.5-27.5-27.5zm12.5 461.283v23.217c0 6.893-5.607 12.5-12.5 12.5h-238.57c-6.893 0-12.5-5.607-12.5-12.5v-23.217z"/><path d="m326.487 111.415v-5.799c0-4.142-3.357-7.5-7.5-7.5s-7.5 3.358-7.5 7.5v5.799c0 4.142 3.357 7.5 7.5 7.5s7.5-3.358 7.5-7.5z"/><path d="m347.426 111.415v-9.799c0-4.142-3.357-7.5-7.5-7.5s-7.5 3.358-7.5 7.5v9.799c0 4.142 3.357 7.5 7.5 7.5s7.5-3.358 7.5-7.5z"/><path d="m368.365 111.415v-13.799c0-4.142-3.357-7.5-7.5-7.5s-7.5 3.358-7.5 7.5v13.799c0 4.142 3.357 7.5 7.5 7.5s7.5-3.358 7.5-7.5z"/><path d="m199.932 76.13h-40.255c-6.893 0-12.5 5.607-12.5 12.5v17.785c0 6.893 5.607 12.5 12.5 12.5h40.255c6.893 0 12.5-5.607 12.5-12.5v-1.484c3.612-.54 6.385-3.646 6.385-7.408s-2.773-6.869-6.385-7.408v-1.485c0-6.893-5.607-12.5-12.5-12.5zm-2.5 27.785h-35.255v-12.785h35.255z"/><path d="m240.634 33.751v-.104c0-4.142-3.358-7.5-7.5-7.5s-7.5 3.358-7.5 7.5v.104c0 4.142 3.358 7.5 7.5 7.5s7.5-3.357 7.5-7.5z"/><path d="m278.838 41.662h.03c4.128 0 7.483-3.339 7.499-7.471.016-4.142-3.329-7.513-7.471-7.529l-22.669-.088c-.01 0-.02 0-.03 0-4.128 0-7.483 3.339-7.5 7.471-.016 4.142 3.329 7.513 7.471 7.529z"/><path d="m347.203 360.149h-13.659c-4.143 0-7.5 3.358-7.5 7.5s3.357 7.5 7.5 7.5h13.659c11.683 0 21.188-9.505 21.188-21.188 0-15.157-10.719-27.853-24.974-30.919l-13.24-94.689c6.988-5.993 11.427-14.876 11.427-24.782 0-18.004-14.647-32.652-32.651-32.652-3.86 0-7.563.677-11.003 1.912-6.588-4.521-13.756-7.905-21.298-10.082 1.934-3.431 3.043-7.385 3.043-11.596 0-13.065-10.629-23.694-23.694-23.694s-23.694 10.629-23.694 23.694c0 4.226 1.117 8.194 3.064 11.633-10.29 2.977-19.9 8.154-28.107 15.293-13.515 11.757-22.325 28.002-24.805 45.743l-13.874 99.22c-14.255 3.066-24.974 15.762-24.974 30.919 0 11.683 9.504 21.187 21.187 21.187h61.942c-.106 1.017-.162 2.042-.162 3.075 0 16.224 13.199 29.423 29.423 29.423 16.225 0 29.424-13.199 29.424-29.423 0-1.033-.057-2.059-.162-3.075h11.993c4.143 0 7.5-3.358 7.5-7.5s-3.357-7.5-7.5-7.5h-132.459c-3.412 0-6.187-2.776-6.187-6.188 0-9.169 7.46-16.629 16.629-16.629h161.521c9.17 0 16.63 7.46 16.63 16.63.001 3.413-2.775 6.188-6.187 6.188zm-76.779 18.075c0 7.953-6.471 14.423-14.424 14.423s-14.423-6.47-14.423-14.423c0-1.045.12-2.071.338-3.075h28.17c.219 1.004.339 2.03.339 3.075zm56.18-174.652c0 9.733-7.918 17.652-17.651 17.652s-17.652-7.918-17.652-17.652 7.919-17.652 17.652-17.652 17.651 7.918 17.651 17.652zm-79.298-52.418c0-4.794 3.9-8.694 8.694-8.694s8.694 3.9 8.694 8.694-3.9 8.694-8.694 8.694-8.694-3.9-8.694-8.694zm-63.477 171.178 13.484-96.432c4.069-29.104 29.299-51.052 58.687-51.052 10.052 0 19.726 2.491 28.392 7.243-5.032 5.746-8.092 13.261-8.092 21.481 0 18.004 14.647 32.652 32.652 32.652 2.428 0 4.791-.275 7.069-.78l12.149 86.888z"/></g></svg>