<?xml version="1.0" encoding="iso-8859-1"?>
<!-- Generator: Adobe Illustrator 19.0.0, SVG Export Plug-In . SVG Version: 6.00 Build 0)  -->
<svg version="1.1" id="Capa_1" xmlns="http://www.w3.org/2000/svg" xmlns:xlink="http://www.w3.org/1999/xlink" x="0px" y="0px"
	 viewBox="0 0 512 512" style="enable-background:new 0 0 512 512;" xml:space="preserve">
<g>
	<g>
		<path d="M123.465,347.901H40.633c-4.142,0-7.5,3.358-7.5,7.5v82.832c0,4.142,3.358,7.5,7.5,7.5h82.832c4.142,0,7.5-3.358,7.5-7.5
			v-82.832C130.965,351.26,127.607,347.901,123.465,347.901z M48.133,430.734v-67.832h67.832v67.832H48.133z"/>
	</g>
</g>
<g>
	<g>
		<path d="M98.617,372.75H65.482c-4.142,0-7.5,3.358-7.5,7.5v33.135c0,4.143,3.358,7.501,7.5,7.501h33.135
			c4.142,0,7.5-3.358,7.5-7.5V380.25C106.117,376.107,102.759,372.75,98.617,372.75z M91.117,405.885H72.982V387.75h18.135V405.885z
			"/>
	</g>
</g>
<g>
	<g>
		<path d="M206.299,364.466h-49.7c-4.142,0-7.5,3.358-7.5,7.5c0,4.142,3.358,7.5,7.5,7.5h49.7c4.142,0,7.5-3.358,7.5-7.5
			C213.799,367.825,210.441,364.466,206.299,364.466z"/>
	</g>
</g>
<g>
	<g>
		<path d="M206.299,397.602h-49.698c-4.142,0-7.5,3.358-7.5,7.5c0,4.142,3.358,7.5,7.5,7.5h49.698c4.142,0,7.5-3.358,7.5-7.5
			C213.799,400.959,210.441,397.602,206.299,397.602z"/>
	</g>
</g>
<g>
	<g>
		<path d="M256,397.602h-24.85c-4.142,0-7.5,3.358-7.5,7.5c0,4.142,3.358,7.5,7.5,7.5H256c4.142,0,7.5-3.358,7.5-7.5
			C263.5,400.961,260.142,397.602,256,397.602z"/>
	</g>
</g>
<g>
	<g>
		<path d="M320.752,127.501l-59.036-59.036c-2.929-2.929-7.678-2.929-10.606,0l-59.45,59.45c-2.929,2.929-2.929,7.678,0,10.606
			l23.429,23.429c2.928,2.929,7.677,2.929,10.606,0l6.651-6.65v51c0,4.142,3.358,7.5,7.5,7.5h33.133c4.142,0,7.5-3.358,7.5-7.5
			v-51.002l6.238,6.238c2.929,2.929,7.678,2.929,10.606,0l23.429-23.429c1.407-1.406,2.197-3.314,2.197-5.303
			S322.159,128.906,320.752,127.501z M292.021,145.625l-13.738-13.738c-2.145-2.145-5.372-2.786-8.173-1.626
			c-2.803,1.161-4.63,3.896-4.63,6.929v61.609h-18.133v-61.607c0-3.034-1.827-5.768-4.63-6.929
			c-2.803-1.161-6.029-0.519-8.173,1.626l-14.151,14.15l-12.822-12.822l48.843-48.844l48.43,48.43L292.021,145.625z"/>
	</g>
</g>
<g>
	<g>
		<path d="M503.764,138.494c-0.138-0.13-0.282-0.252-0.428-0.37c-4.177-3.489-9.549-5.592-15.404-5.592h-125.3
			c-3.864-55.456-50.21-99.395-106.631-99.395c-56.421,0-102.767,43.938-106.631,99.394H24.067c-5.732,0-11,2.017-15.139,5.375
			c-0.01,0.007-0.019,0.015-0.028,0.022c-0.073,0.059-0.146,0.118-0.219,0.179c-0.156,0.125-0.309,0.256-0.455,0.395
			C3.19,142.916,0,149.39,0,156.598v298.199c0,13.271,10.796,24.067,24.067,24.067h367.235c4.142,0,7.5-3.358,7.5-7.5
			c0-4.142-3.358-7.5-7.5-7.5H24.067c-5,0-9.067-4.067-9.067-9.067V156.598c0-0.681,0.082-1.343,0.225-1.981l236.334,173.691
			c1.321,0.971,2.881,1.457,4.441,1.457s3.12-0.485,4.441-1.457l236.333-173.692c0.143,0.639,0.225,1.301,0.225,1.982v298.199
			c0,4.999-4.067,9.067-9.067,9.067H421.25c-4.142,0-7.5,3.358-7.5,7.5c0,4.142,3.358,7.5,7.5,7.5h66.683
			c13.271,0,24.067-10.796,24.067-24.067V156.598C512,149.385,508.806,142.909,503.764,138.494z M256.001,48.135
			c50.667,0,91.888,41.216,91.898,91.881c0,0.005-0.001,0.01-0.001,0.015s0.001,0.011,0.001,0.016
			c-0.007,50.667-41.23,91.885-91.898,91.885c-50.673,0-91.899-41.226-91.899-91.898C164.102,89.361,205.328,48.135,256.001,48.135z
			 M256,312.956L30.912,147.531h118.457c3.861,55.459,50.209,99.401,106.632,99.401c56.423,0,102.77-43.943,106.632-99.401h118.454
			L256,312.956z"/>
	</g>
</g>
<g>
</g>
<g>
</g>
<g>
</g>
<g>
</g>
<g>
</g>
<g>
</g>
<g>
</g>
<g>
</g>
<g>
</g>
<g>
</g>
<g>
</g>
<g>
</g>
<g>
</g>
<g>
</g>
<g>
</g>
</svg>
